<svg width="18" height="18" viewBox="0 0 18 18" fill="none" xmlns="http://www.w3.org/2000/svg">
<path d="M9 1C7.41775 1 5.87103 1.46919 4.55544 2.34824C3.23984 3.22729 2.21446 4.47672 1.60896 5.93853C1.00346 7.40034 0.845036 9.00887 1.15372 10.5607C1.4624 12.1126 2.22433 13.538 3.34315 14.6569C4.46197 15.7757 5.88743 16.5376 7.43928 16.8463C8.99113 17.155 10.5997 16.9965 12.0615 16.391C13.5233 15.7855 14.7727 14.7602 15.6518 13.4446C16.5308 12.129 17 10.5823 17 9C17 6.87827 16.1571 4.84344 14.6569 3.34315C13.1566 1.84285 11.1217 1 9 1V1ZM9 16C7.61553 16 6.26215 15.5895 5.11101 14.8203C3.95986 14.0511 3.06266 12.9579 2.53284 11.6788C2.00303 10.3997 1.86441 8.99223 2.1345 7.63437C2.4046 6.2765 3.07128 5.02922 4.05025 4.05025C5.02922 3.07128 6.2765 2.4046 7.63437 2.1345C8.99223 1.86441 10.3997 2.00303 11.6788 2.53284C12.9579 3.06266 14.0511 3.95986 14.8203 5.11101C15.5895 6.26215 16 7.61553 16 9C16 10.8565 15.2625 12.637 13.9497 13.9497C12.637 15.2625 10.8565 16 9 16Z" fill="white"/>
<path d="M12 8.5H6C5.86739 8.5 5.74021 8.55268 5.64645 8.64645C5.55268 8.74021 5.5 8.86739 5.5 9C5.5 9.13261 5.55268 9.25979 5.64645 9.35355C5.74021 9.44732 5.86739 9.5 6 9.5H12C12.1326 9.5 12.2598 9.44732 12.3536 9.35355C12.4473 9.25979 12.5 9.13261 12.5 9C12.5 8.86739 12.4473 8.74021 12.3536 8.64645C12.2598 8.55268 12.1326 8.5 12 8.5Z" fill="white"/>
</svg>
