<svg width="18" height="18" viewBox="0 0 18 18" fill="none" xmlns="http://www.w3.org/2000/svg">
<path d="M9.805 8.99994L12.235 6.56994C12.3169 6.47429 12.3597 6.35125 12.3549 6.22541C12.35 6.09958 12.2978 5.98021 12.2088 5.89116C12.1197 5.80211 12.0004 5.74995 11.8745 5.74508C11.7487 5.74022 11.6256 5.78303 11.53 5.86494L9.1 8.26994L6.655 5.82494C6.55935 5.74303 6.43631 5.70022 6.31047 5.70508C6.18463 5.70995 6.06526 5.76211 5.97622 5.85116C5.88717 5.94021 5.835 6.05958 5.83014 6.18541C5.82528 6.31125 5.86808 6.43429 5.95 6.52994L8.39 8.99994L6 11.3599C5.94766 11.4048 5.90515 11.4599 5.87514 11.522C5.84512 11.584 5.82826 11.6516 5.8256 11.7204C5.82294 11.7893 5.83454 11.8579 5.85968 11.9221C5.88482 11.9863 5.92295 12.0445 5.97167 12.0933C6.0204 12.142 6.07867 12.1801 6.14284 12.2053C6.207 12.2304 6.27566 12.242 6.34452 12.2393C6.41338 12.2367 6.48095 12.2198 6.54298 12.1898C6.60502 12.1598 6.66017 12.1173 6.705 12.0649L9.09 9.67994L11.46 12.0499C11.5556 12.1319 11.6787 12.1747 11.8045 12.1698C11.9304 12.1649 12.0497 12.1128 12.1388 12.0237C12.2278 11.9347 12.28 11.8153 12.2849 11.6895C12.2897 11.5636 12.2469 11.4406 12.165 11.3449L9.805 8.99994Z" fill="white"/>
<path d="M9 17C7.41775 17 5.87103 16.5308 4.55544 15.6518C3.23985 14.7727 2.21447 13.5233 1.60897 12.0615C1.00347 10.5997 0.84504 8.99113 1.15372 7.43928C1.4624 5.88743 2.22433 4.46197 3.34315 3.34315C4.46197 2.22433 5.88743 1.4624 7.43928 1.15372C8.99113 0.84504 10.5997 1.00347 12.0615 1.60897C13.5233 2.21447 14.7727 3.23985 15.6518 4.55544C16.5308 5.87103 17 7.41775 17 9C17 11.1217 16.1571 13.1566 14.6569 14.6569C13.1566 16.1571 11.1217 17 9 17V17ZM9 2C7.61553 2 6.26216 2.41055 5.11101 3.17972C3.95987 3.94889 3.06266 5.04214 2.53285 6.32122C2.00303 7.6003 1.86441 9.00777 2.13451 10.3656C2.4046 11.7235 3.07129 12.9708 4.05026 13.9498C5.02922 14.9287 6.2765 15.5954 7.63437 15.8655C8.99224 16.1356 10.3997 15.997 11.6788 15.4672C12.9579 14.9373 14.0511 14.0401 14.8203 12.889C15.5895 11.7379 16 10.3845 16 9C16 7.14349 15.2625 5.36301 13.9498 4.05026C12.637 2.7375 10.8565 2 9 2V2Z" fill="white"/>
</svg>
